<svg width="28" height="25" viewBox="0 0 28 25" fill="none" xmlns="http://www.w3.org/2000/svg">
<g filter="url(#filter0_d_1_252)">
<path d="M23.4218 1.74644L15.4708 16.5153C15.4043 16.639 15.2915 16.7405 15.15 16.8038C15.0086 16.8671 14.8464 16.8888 14.689 16.8653C14.5316 16.8418 14.3877 16.7746 14.2799 16.6742C14.1721 16.5737 14.1065 16.4457 14.0933 16.3101L13.4211 9.44459L5.35682 8.8723C5.19755 8.86103 5.04716 8.80515 4.92916 8.71338C4.81116 8.62161 4.73222 8.49914 4.70467 8.36511C4.67712 8.23109 4.70252 8.09307 4.7769 7.97264C4.85129 7.85221 4.97045 7.75617 5.11576 7.69953L22.4633 0.930461C22.5974 0.878137 22.7471 0.862 22.8923 0.884217C23.0375 0.906435 23.1713 0.965943 23.2756 1.05475C23.3799 1.14356 23.4498 1.25741 23.4759 1.38102C23.502 1.50463 23.483 1.63208 23.4216 1.74626L23.4218 1.74644Z" fill="#FA7436"/>
</g>
<defs>
<filter id="filter0_d_1_252" x="0.693848" y="0.874512" width="26.7935" height="24" filterUnits="userSpaceOnUse" color-interpolation-filters="sRGB">
<feFlood flood-opacity="0" result="BackgroundImageFix"/>
<feColorMatrix in="SourceAlpha" type="matrix" values="0 0 0 0 0 0 0 0 0 0 0 0 0 0 0 0 0 0 127 0" result="hardAlpha"/>
<feOffset dy="4"/>
<feGaussianBlur stdDeviation="2"/>
<feComposite in2="hardAlpha" operator="out"/>
<feColorMatrix type="matrix" values="0 0 0 0 0 0 0 0 0 0 0 0 0 0 0 0 0 0 0.25 0"/>
<feBlend mode="normal" in2="BackgroundImageFix" result="effect1_dropShadow_1_252"/>
<feBlend mode="normal" in="SourceGraphic" in2="effect1_dropShadow_1_252" result="shape"/>
</filter>
</defs>
</svg>
