<svg width="99" height="119" viewBox="0 0 99 119" fill="none" xmlns="http://www.w3.org/2000/svg">
<g filter="url(#filter0_d_1_303)">
<path d="M81.2343 110.06C81.2885 110.06 81.3419 110.047 81.3893 110.021C81.4367 109.994 81.4763 109.956 81.5043 109.91C81.8643 109.363 82.1976 108.813 82.5043 108.26C82.5497 108.186 82.5645 108.098 82.5459 108.014C82.5272 107.93 82.4764 107.857 82.4043 107.81C82.3298 107.765 82.2409 107.752 82.1567 107.772C82.0725 107.793 81.9998 107.846 81.9543 107.92C81.6143 108.47 81.2743 109.01 80.9543 109.56C80.93 109.595 80.9131 109.635 80.9045 109.676C80.8959 109.718 80.8958 109.762 80.9042 109.804C80.9126 109.845 80.9293 109.885 80.9534 109.921C80.9775 109.956 81.0083 109.986 81.0443 110.01C81.1026 110.041 81.1678 110.059 81.2343 110.06ZM83.2343 106.74C83.2907 106.739 83.3461 106.724 83.3952 106.696C83.4442 106.668 83.4852 106.628 83.5142 106.58C83.8342 106.01 84.1542 105.44 84.5142 104.87C84.5547 104.795 84.5649 104.707 84.5425 104.625C84.5202 104.544 84.467 104.473 84.3943 104.43C84.3184 104.39 84.2301 104.381 84.148 104.406C84.0659 104.43 83.9964 104.485 83.9543 104.56C83.6442 105.13 83.3243 105.69 83.0043 106.25C82.9599 106.324 82.9465 106.413 82.9671 106.497C82.9877 106.581 83.0405 106.654 83.1143 106.7C83.1663 106.728 83.225 106.742 83.2843 106.74H83.2343ZM85.0943 103.32C85.1544 103.319 85.2133 103.302 85.2644 103.27C85.3155 103.238 85.357 103.193 85.3843 103.14C85.6843 102.56 85.9743 101.97 86.2543 101.39C86.273 101.351 86.2839 101.31 86.2864 101.268C86.289 101.226 86.2831 101.183 86.2691 101.143C86.2552 101.103 86.2334 101.066 86.2051 101.035C86.1768 101.003 86.1425 100.978 86.1043 100.96C86.0662 100.941 86.0249 100.93 85.9826 100.927C85.9403 100.925 85.8979 100.931 85.8579 100.945C85.8179 100.959 85.7811 100.98 85.7496 101.009C85.7181 101.037 85.6925 101.071 85.6743 101.11C85.3943 101.69 85.1043 102.27 84.8043 102.85C84.7856 102.888 84.7747 102.929 84.7721 102.971C84.7696 103.013 84.7754 103.056 84.7894 103.096C84.8033 103.136 84.8251 103.173 84.8534 103.204C84.8817 103.236 84.916 103.261 84.9543 103.28C84.9811 103.3 85.012 103.314 85.0448 103.321C85.0776 103.327 85.1116 103.327 85.1443 103.32H85.0943ZM86.7843 99.7995C86.8469 99.7986 86.9081 99.7803 86.961 99.7468C87.014 99.7133 87.0566 99.6658 87.0843 99.6095L87.8643 97.8195C87.8973 97.7386 87.8969 97.6479 87.8632 97.5673C87.8294 97.4867 87.7651 97.4228 87.6843 97.3895C87.6046 97.3595 87.5164 97.3615 87.4381 97.3951C87.3598 97.4286 87.2975 97.4911 87.2642 97.5695C87.0142 98.1595 86.7543 98.7495 86.4943 99.3495C86.4761 99.3874 86.4658 99.4286 86.4641 99.4707C86.4623 99.5127 86.4692 99.5546 86.4842 99.5939C86.4991 99.6332 86.5219 99.669 86.5512 99.6992C86.5804 99.7294 86.6155 99.7533 86.6543 99.7695C86.7099 99.7974 86.7726 99.8078 86.8343 99.7995H86.7843ZM88.2943 96.2095C88.3583 96.2089 88.4208 96.1896 88.474 96.1541C88.5273 96.1186 88.569 96.0684 88.5943 96.0095C88.8343 95.3895 89.0643 94.7795 89.2943 94.1695C89.3084 94.1295 89.3145 94.0871 89.312 94.0447C89.3096 94.0023 89.2988 93.9608 89.2802 93.9226C89.2616 93.8845 89.2356 93.8504 89.2036 93.8224C89.1717 93.7944 89.1345 93.773 89.0943 93.7595C89.0146 93.7331 88.9278 93.738 88.8517 93.7733C88.7755 93.8086 88.7156 93.8716 88.6843 93.9495C88.4643 94.5595 88.2343 95.1595 87.9943 95.7695C87.9643 95.8492 87.9663 95.9375 87.9998 96.0157C88.0334 96.094 88.0959 96.1563 88.1743 96.1895L88.2943 96.2095ZM89.6343 92.5495C89.701 92.5487 89.7658 92.5271 89.8195 92.4876C89.8733 92.4482 89.9135 92.3929 89.9343 92.3295C90.1543 91.7095 90.3543 91.0895 90.5443 90.4695C90.5696 90.3873 90.5619 90.2984 90.5227 90.2218C90.4834 90.1452 90.4158 90.087 90.3343 90.0595C90.252 90.0342 90.1632 90.0419 90.0866 90.0812C90.01 90.1204 89.9518 90.188 89.9243 90.2695C89.7343 90.8895 89.5343 91.4995 89.3243 92.1195C89.2989 92.2018 89.3067 92.2906 89.3459 92.3672C89.3851 92.4438 89.4527 92.5021 89.5343 92.5295L89.6343 92.5495ZM90.7943 88.8295C90.8648 88.8279 90.933 88.8038 90.9888 88.7606C91.0446 88.7174 91.085 88.6574 91.1043 88.5895C91.2843 87.9595 91.4643 87.3295 91.6243 86.7095C91.6458 86.626 91.6338 86.5374 91.5908 86.4626C91.5478 86.3879 91.4773 86.3329 91.3943 86.3095C91.3535 86.299 91.3112 86.2966 91.2696 86.3025C91.2279 86.3083 91.1879 86.3223 91.1516 86.3437C91.1154 86.3651 91.0837 86.3934 91.0584 86.427C91.0332 86.4606 91.0148 86.4988 91.0043 86.5395C90.8343 87.1595 90.6643 87.7895 90.4843 88.4095C90.4721 88.4502 90.4681 88.493 90.4726 88.5352C90.477 88.5775 90.4899 88.6184 90.5104 88.6557C90.5309 88.6929 90.5586 88.7257 90.5919 88.7521C90.6252 88.7785 90.6633 88.798 90.7043 88.8095L90.7943 88.8295ZM91.7943 85.0595C91.8661 85.0573 91.9353 85.0317 91.9912 84.9866C92.0472 84.9414 92.0869 84.8793 92.1043 84.8095C92.2543 84.1695 92.4043 83.5295 92.5343 82.8995C92.5446 82.8588 92.5465 82.8163 92.5399 82.7748C92.5333 82.7333 92.5183 82.6936 92.4958 82.658C92.4734 82.6225 92.4439 82.5919 92.4093 82.5681C92.3746 82.5443 92.3355 82.5277 92.2943 82.5195C92.2529 82.5092 92.2099 82.5072 92.1677 82.5137C92.1255 82.5202 92.0851 82.535 92.0487 82.5574C92.0124 82.5798 91.9809 82.6092 91.9561 82.6439C91.9313 82.6786 91.9136 82.7179 91.9043 82.7595C91.7743 83.3895 91.6243 84.0195 91.4743 84.6595C91.456 84.743 91.4709 84.8302 91.5157 84.9029C91.5604 84.9757 91.6316 85.0282 91.7143 85.0495L91.7943 85.0595ZM92.6143 81.2395C92.6897 81.2409 92.7632 81.2155 92.8217 81.1679C92.8803 81.1204 92.9202 81.0536 92.9343 80.9795C93.0543 80.3395 93.1743 79.6995 93.2843 79.0595C93.2988 78.976 93.2795 78.8901 93.2308 78.8207C93.1821 78.7514 93.1078 78.7042 93.0243 78.6895C92.9822 78.6809 92.9388 78.6808 92.8966 78.6893C92.8545 78.6977 92.8145 78.7146 92.7791 78.7389C92.7436 78.7631 92.7134 78.7943 92.6903 78.8305C92.6671 78.8667 92.6514 78.9072 92.6443 78.9495C92.5343 79.5795 92.4243 80.2195 92.2943 80.8595C92.2856 80.9016 92.2855 80.945 92.294 80.9872C92.3024 81.0293 92.3193 81.0693 92.3436 81.1047C92.3679 81.1402 92.399 81.1704 92.4352 81.1936C92.4714 81.2167 92.5119 81.2324 92.5543 81.2395H92.6143ZM93.2743 77.3995C93.3517 77.4027 93.4275 77.3767 93.4867 77.3267C93.546 77.2767 93.5843 77.2064 93.5943 77.1295C93.6943 76.4795 93.7843 75.8295 93.8643 75.1895C93.8699 75.1475 93.867 75.1047 93.8559 75.0637C93.8448 75.0228 93.8257 74.9844 93.7996 74.9509C93.7736 74.9174 93.7412 74.8894 93.7042 74.8686C93.6672 74.8477 93.6264 74.8345 93.5843 74.8295C93.542 74.8225 93.4987 74.8242 93.4572 74.8348C93.4156 74.8453 93.3767 74.8643 93.3429 74.8906C93.309 74.9169 93.2811 74.9499 93.2606 74.9876C93.2402 75.0253 93.2278 75.0668 93.2243 75.1095C93.1443 75.7362 93.0543 76.3762 92.9543 77.0295C92.9426 77.1142 92.9643 77.2 93.0146 77.269C93.065 77.338 93.1401 77.3848 93.2243 77.3995H93.2743ZM93.7642 73.5295C93.8448 73.5323 93.9233 73.5036 93.9831 73.4494C94.0428 73.3953 94.0791 73.32 94.0843 73.2395C94.1543 72.5895 94.2243 71.9395 94.2743 71.2995C94.2798 71.2136 94.2516 71.1289 94.1955 71.0635C94.1395 70.9981 94.0601 70.9572 93.9743 70.9495C93.9325 70.9439 93.89 70.9471 93.8495 70.959C93.8091 70.9709 93.7716 70.9912 93.7395 71.0186C93.7074 71.046 93.6815 71.0798 93.6634 71.1178C93.6452 71.1559 93.6353 71.1974 93.6343 71.2395C93.5743 71.8795 93.5143 72.5295 93.4443 73.1795C93.4402 73.2216 93.4444 73.264 93.4568 73.3045C93.4691 73.3449 93.4894 73.3824 93.5163 73.415C93.5433 73.4475 93.5765 73.4744 93.6139 73.494C93.6513 73.5137 93.6922 73.5258 93.7343 73.5295H93.7642ZM94.0943 69.6495C94.1758 69.6497 94.2543 69.6187 94.3137 69.563C94.3732 69.5072 94.4092 69.4309 94.4143 69.3495C94.4143 68.6795 94.4942 68.0295 94.5142 67.3495C94.5169 67.3067 94.511 67.2637 94.4968 67.2232C94.4825 67.1827 94.4603 67.1455 94.4314 67.1138C94.4024 67.0821 94.3674 67.0565 94.3284 67.0386C94.2894 67.0207 94.2472 67.0108 94.2043 67.0095C94.1203 67.0134 94.0404 67.0465 93.9783 67.1031C93.9162 67.1597 93.8759 67.2363 93.8643 67.3195C93.8643 67.9595 93.8643 68.6095 93.7743 69.2595C93.7687 69.3455 93.797 69.4302 93.8531 69.4956C93.9091 69.561 93.9885 69.6019 94.0743 69.6095L94.0943 69.6495ZM94.2443 65.7495C94.3292 65.7495 94.4105 65.7158 94.4705 65.6558C94.5306 65.5958 94.5643 65.5144 94.5643 65.4295C94.5643 64.9695 94.5643 64.5195 94.5643 64.0695V63.4795C94.5643 63.3947 94.5306 63.3133 94.4705 63.2533C94.4105 63.1932 94.3292 63.1595 94.2443 63.1595C94.1594 63.1595 94.078 63.1932 94.018 63.2533C93.958 63.3133 93.9243 63.3947 93.9243 63.4795V64.0695C93.9243 64.5195 93.9243 64.9695 93.9243 65.4195C93.9229 65.4624 93.9302 65.5051 93.9457 65.5451C93.9612 65.585 93.9845 65.6215 94.0144 65.6523C94.0442 65.6831 94.08 65.7076 94.1195 65.7243C94.159 65.741 94.2014 65.7495 94.2443 65.7495ZM94.2443 61.8495C94.2872 61.8496 94.3296 61.841 94.3691 61.8242C94.4086 61.8075 94.4443 61.7831 94.4741 61.7523C94.504 61.7215 94.5274 61.6851 94.5429 61.6451C94.5584 61.6051 94.5656 61.5624 94.5643 61.5195C94.5643 60.8495 94.5043 60.1995 94.4743 59.5195C94.4666 59.4337 94.4257 59.3543 94.3603 59.2983C94.2949 59.2422 94.2102 59.214 94.1243 59.2195C94.0822 59.2221 94.0411 59.2329 94.0033 59.2514C93.9654 59.2699 93.9315 59.2956 93.9037 59.3272C93.8758 59.3588 93.8544 59.3956 93.8408 59.4355C93.8272 59.4753 93.8216 59.5175 93.8243 59.5595C93.8243 60.1895 93.8943 60.8395 93.9143 61.4995C93.9096 61.5466 93.9154 61.5942 93.9314 61.6388C93.9473 61.6834 93.973 61.7239 94.0064 61.7574C94.0399 61.7909 94.0804 61.8165 94.125 61.8324C94.1696 61.8484 94.2171 61.8542 94.2642 61.8495H94.2443ZM94.0142 57.9595C94.0563 57.9558 94.0973 57.9437 94.1347 57.924C94.1721 57.9044 94.2052 57.8775 94.2322 57.845C94.2592 57.8124 94.2794 57.7749 94.2918 57.7345C94.3041 57.694 94.3084 57.6516 94.3043 57.6095C94.2443 56.9429 94.1743 56.2762 94.0943 55.6095C94.0907 55.5668 94.0784 55.5253 94.0579 55.4876C94.0375 55.4499 94.0095 55.4169 93.9757 55.3906C93.9418 55.3643 93.9029 55.3453 93.8614 55.3348C93.8198 55.3243 93.7766 55.3225 93.7343 55.3295C93.6502 55.342 93.5742 55.3863 93.5221 55.4534C93.4699 55.5204 93.4456 55.605 93.4543 55.6895C93.5343 56.2995 93.6043 56.9495 93.6643 57.6195C93.6603 57.6688 93.6677 57.7182 93.6861 57.7641C93.7044 57.81 93.7331 57.851 93.7699 57.8839C93.8067 57.9168 93.8506 57.9408 93.8982 57.9539C93.9458 57.967 93.9958 57.969 94.0443 57.9595H94.0142ZM93.5343 54.0895C93.6178 54.0749 93.6921 54.0277 93.7408 53.9583C93.7896 53.889 93.8088 53.8031 93.7943 53.7195L93.7343 53.3295C93.6443 52.8195 93.5443 52.3295 93.4443 51.7895C93.436 51.7481 93.4194 51.7087 93.3958 51.6736C93.3721 51.6385 93.3418 51.6085 93.3064 51.5853C93.2711 51.562 93.2315 51.546 93.1899 51.5381C93.1483 51.5303 93.1057 51.5308 93.0643 51.5395C93.0222 51.5466 92.9819 51.5622 92.9461 51.5855C92.9103 51.6088 92.8798 51.6392 92.8563 51.6749C92.8328 51.7106 92.8169 51.7508 92.8097 51.7928C92.8025 51.8349 92.8041 51.8781 92.8143 51.9195C92.9143 52.4295 93.0043 52.9195 93.0943 53.4395L93.1643 53.8195C93.1685 53.8645 93.1826 53.908 93.2054 53.947C93.2282 53.986 93.2593 54.0196 93.2965 54.0453C93.3336 54.071 93.376 54.0883 93.4205 54.0959C93.465 54.1036 93.5107 54.1014 93.5543 54.0895H93.5343ZM92.7642 50.2695H92.8343C92.8755 50.2613 92.9147 50.2448 92.9493 50.221C92.984 50.1972 93.0134 50.1666 93.0359 50.131C93.0583 50.0955 93.0733 50.0558 93.0799 50.0142C93.0865 49.9727 93.0846 49.9303 93.0743 49.8895C92.9243 49.2495 92.7743 48.6195 92.6043 47.9795C92.5928 47.9386 92.5733 47.9004 92.5468 47.8671C92.5204 47.8338 92.4876 47.8061 92.4504 47.7857C92.4132 47.7652 92.3722 47.7523 92.33 47.7478C92.2877 47.7433 92.245 47.7473 92.2043 47.7595C92.1635 47.77 92.1253 47.7884 92.0917 47.8137C92.0581 47.839 92.0298 47.8706 92.0084 47.9069C91.9871 47.9431 91.9731 47.9832 91.9672 48.0248C91.9613 48.0664 91.9637 48.1088 91.9743 48.1495C92.1443 48.7795 92.3043 49.3995 92.4443 50.0295C92.4648 50.1025 92.5098 50.1662 92.5717 50.2099C92.6336 50.2536 92.7087 50.2747 92.7843 50.2695H92.7642ZM91.7642 46.5095H91.8543C91.8952 46.498 91.9334 46.4785 91.9667 46.4521C92 46.4257 92.0276 46.3929 92.0481 46.3557C92.0686 46.3184 92.0815 46.2775 92.086 46.2352C92.0904 46.193 92.0865 46.1502 92.0743 46.1095C91.8843 45.4795 91.6843 44.8595 91.4743 44.2395C91.4608 44.1993 91.4394 44.1621 91.4114 44.1302C91.3834 44.0983 91.3493 44.0723 91.3112 44.0536C91.273 44.035 91.2315 44.0242 91.1891 44.0218C91.1467 44.0194 91.1043 44.0254 91.0643 44.0395C91.024 44.053 90.9868 44.0744 90.9549 44.1024C90.923 44.1304 90.897 44.1645 90.8784 44.2026C90.8598 44.2408 90.8489 44.2823 90.8465 44.3247C90.8441 44.3671 90.8501 44.4095 90.8643 44.4495C91.0743 45.0595 91.2643 45.6795 91.4543 46.2995C91.4778 46.3643 91.5218 46.4198 91.5794 46.4576C91.6371 46.4955 91.7054 46.5137 91.7743 46.5095H91.7642ZM90.5142 42.8095C90.5503 42.8188 90.5882 42.8188 90.6243 42.8095C90.7038 42.7802 90.7684 42.7207 90.804 42.6438C90.8397 42.5669 90.8433 42.4791 90.8143 42.3995C90.5843 41.7895 90.3443 41.1795 90.0843 40.5795C90.0688 40.5399 90.0457 40.5037 90.0161 40.4731C89.9866 40.4425 89.9512 40.4181 89.9121 40.4013C89.873 40.3846 89.8309 40.3758 89.7884 40.3755C89.7458 40.3752 89.7036 40.3834 89.6643 40.3995C89.6255 40.4159 89.5904 40.4398 89.5608 40.4698C89.5313 40.4997 89.5079 40.5353 89.4922 40.5743C89.4764 40.6133 89.4684 40.655 89.4688 40.6971C89.4691 40.7392 89.4778 40.7808 89.4943 40.8195C89.7443 41.4195 89.9843 42.0195 90.2043 42.6295C90.2338 42.6879 90.28 42.7361 90.3369 42.7681C90.3939 42.8002 90.4591 42.8146 90.5243 42.8095H90.5142ZM89.0443 39.2695C89.0905 39.279 89.1381 39.279 89.1843 39.2695C89.2615 39.2326 89.3214 39.1671 89.3512 39.0869C89.3811 39.0067 89.3786 38.918 89.3443 38.8395C89.0643 38.2495 88.7843 37.6595 88.4843 37.0695C88.4439 36.9958 88.3769 36.9403 88.297 36.9143C88.2171 36.8883 88.1303 36.8937 88.0543 36.9295C87.9763 36.9683 87.9167 37.0362 87.8886 37.1186C87.8605 37.2011 87.8662 37.2912 87.9043 37.3695C88.2043 37.9395 88.4843 38.5195 88.7543 39.1095C88.7826 39.1609 88.8248 39.2032 88.8761 39.2315C88.9275 39.2598 88.9858 39.273 89.0443 39.2695ZM87.2843 35.7895C87.3333 35.8032 87.3852 35.8032 87.4343 35.7895C87.4721 35.7696 87.5056 35.7423 87.5327 35.7093C87.5599 35.6762 87.5801 35.638 87.5922 35.597C87.6043 35.556 87.6081 35.5129 87.6033 35.4704C87.5985 35.4279 87.5853 35.3868 87.5643 35.3495C87.2443 34.7795 86.9143 34.2095 86.5643 33.6595C86.5437 33.6223 86.5156 33.5897 86.4819 33.5638C86.4482 33.5379 86.4095 33.5192 86.3682 33.5088C86.3269 33.4985 86.284 33.4968 86.242 33.5038C86.2001 33.5108 86.16 33.5264 86.1243 33.5495C86.0881 33.5711 86.0565 33.5997 86.0314 33.6335C86.0063 33.6673 85.9881 33.7058 85.9779 33.7467C85.9677 33.7876 85.9656 33.8301 85.9718 33.8717C85.9781 33.9134 85.9925 33.9534 86.0142 33.9895C86.3542 34.5395 86.6742 35.0995 87.0142 35.6695C87.0472 35.6972 87.0856 35.7177 87.1269 35.7298C87.1682 35.7418 87.2116 35.7452 87.2543 35.7395L87.2843 35.7895ZM85.2843 32.4595C85.3429 32.4773 85.4056 32.4773 85.4643 32.4595C85.5002 32.4363 85.5311 32.4061 85.5552 32.3707C85.5793 32.3353 85.5959 32.2955 85.6043 32.2535C85.6127 32.2116 85.6126 32.1684 85.604 32.1265C85.5954 32.0846 85.5785 32.0448 85.5543 32.0095C85.1843 31.4695 84.8143 30.9295 84.4243 30.3995C84.3726 30.3323 84.2971 30.2875 84.2133 30.2745C84.1295 30.2614 84.0439 30.2811 83.9743 30.3295C83.907 30.3812 83.8622 30.4567 83.8492 30.5405C83.8362 30.6243 83.8559 30.7099 83.9043 30.7795C84.2843 31.2995 84.6542 31.8295 85.0142 32.3695C85.0776 32.4065 85.1518 32.4207 85.2243 32.4095L85.2843 32.4595ZM41.2843 30.2495H41.6943C41.7364 30.247 41.7775 30.2362 41.8153 30.2177C41.8532 30.1992 41.887 30.1734 41.9149 30.1418C41.9428 30.1102 41.9641 30.0735 41.9777 30.0336C41.9914 29.9937 41.997 29.9516 41.9943 29.9095C41.9931 29.867 41.9832 29.8252 41.9652 29.7867C41.9472 29.7482 41.9214 29.7137 41.8895 29.6856C41.8576 29.6575 41.8203 29.6362 41.7798 29.6231C41.7393 29.61 41.6966 29.6054 41.6543 29.6095C41.2717 29.6446 40.8868 29.6446 40.5043 29.6095C40.2751 29.5807 40.048 29.5373 39.8243 29.4795C39.7408 29.458 39.6522 29.47 39.5774 29.513C39.5027 29.556 39.4477 29.6265 39.4243 29.7095C39.4139 29.7509 39.4119 29.794 39.4184 29.8361C39.4249 29.8783 39.4398 29.9187 39.4621 29.9551C39.4845 29.9914 39.5139 30.0229 39.5486 30.0477C39.5833 30.0725 39.6227 30.0901 39.6643 30.0995C39.9166 30.1696 40.1741 30.2198 40.4343 30.2495C40.6816 30.2446 40.9286 30.228 41.1743 30.1995L41.2843 30.2495ZM43.5843 29.8595H43.6843C44.3339 29.6314 44.9394 29.2931 45.4743 28.8595C45.5341 28.7979 45.5677 28.7154 45.5677 28.6295C45.5677 28.5436 45.5341 28.4611 45.4743 28.3995C45.4444 28.3687 45.4087 28.3442 45.3692 28.3274C45.3297 28.3107 45.2872 28.302 45.2443 28.302C45.2014 28.302 45.1589 28.3107 45.1194 28.3274C45.0798 28.3442 45.0441 28.3687 45.0142 28.3995C44.5365 28.7812 43.9994 29.0818 43.4243 29.2895C43.384 29.303 43.3469 29.3244 43.315 29.3524C43.2831 29.3804 43.257 29.4145 43.2384 29.4526C43.2198 29.4908 43.2089 29.5323 43.2065 29.5747C43.2041 29.617 43.2101 29.6595 43.2243 29.6995C43.2557 29.7346 43.2942 29.7626 43.3374 29.7816C43.3805 29.8006 43.4272 29.8101 43.4743 29.8095L43.5843 29.8595ZM83.0343 29.3195C83.1071 29.3204 83.1779 29.2956 83.2343 29.2495C83.2941 29.1879 83.3277 29.1054 83.3277 29.0195C83.3277 28.9336 83.2941 28.8511 83.2343 28.7895C82.8243 28.2795 82.3943 27.7895 81.9743 27.2895C81.9127 27.2297 81.8302 27.1962 81.7443 27.1962C81.6584 27.1962 81.5758 27.2297 81.5142 27.2895C81.4544 27.3511 81.4209 27.4336 81.4209 27.5195C81.4209 27.6054 81.4544 27.6879 81.5142 27.7495C81.9342 28.2295 82.3543 28.7495 82.7543 29.2295C82.8065 29.2574 82.8651 29.2712 82.9243 29.2695L83.0343 29.3195ZM37.9743 29.2695C38.0269 29.268 38.0785 29.2546 38.1253 29.2304C38.172 29.2062 38.2127 29.1717 38.2443 29.1295C38.2896 29.0563 38.3045 28.9683 38.2859 28.8842C38.2672 28.8001 38.2164 28.7267 38.1443 28.6795C37.6284 28.3369 37.161 27.9266 36.7543 27.4595C36.6944 27.4003 36.6135 27.3671 36.5293 27.3671C36.445 27.3671 36.3642 27.4003 36.3043 27.4595C36.2444 27.5211 36.2109 27.6036 36.2109 27.6895C36.2109 27.7754 36.2444 27.8579 36.3043 27.9195C36.7478 28.4368 37.263 28.8881 37.8343 29.2595C37.8441 29.2635 37.8541 29.2668 37.8643 29.2695H37.9743ZM46.5043 27.4195C46.5617 27.418 46.6177 27.4015 46.6668 27.3717C46.7159 27.3419 46.7564 27.2998 46.7843 27.2495C47.1144 26.6268 47.328 25.949 47.4143 25.2495C47.4199 25.2075 47.4171 25.1647 47.406 25.1237C47.3949 25.0828 47.3757 25.0444 47.3496 25.0109C47.3236 24.9774 47.2912 24.9494 47.2542 24.9286C47.2172 24.9078 47.1765 24.8945 47.1343 24.8895C47.0508 24.8781 46.9662 24.9 46.8988 24.9506C46.8314 25.0011 46.7866 25.0762 46.7743 25.1595C46.6913 25.7666 46.5053 26.3551 46.2243 26.8995C46.2033 26.9368 46.1901 26.9779 46.1853 27.0204C46.1805 27.0629 46.1843 27.106 46.1964 27.147C46.2085 27.188 46.2287 27.2262 46.2558 27.2592C46.283 27.2923 46.3164 27.3196 46.3543 27.3395C46.367 27.3503 46.3803 27.3603 46.3943 27.3695L46.5043 27.4195ZM80.4543 26.4195C80.5397 26.4204 80.6222 26.3882 80.6843 26.3295C80.7442 26.2679 80.7776 26.1854 80.7776 26.0995C80.7776 26.0136 80.7442 25.9311 80.6843 25.8695C80.2243 25.3995 79.7543 24.9395 79.2843 24.4895C79.2227 24.4297 79.1402 24.3962 79.0543 24.3962C78.9684 24.3962 78.8859 24.4297 78.8243 24.4895C78.7651 24.5494 78.7318 24.6303 78.7318 24.7145C78.7318 24.7988 78.7651 24.8796 78.8243 24.9395C79.2843 25.3795 79.7443 25.8395 80.1943 26.2995C80.2399 26.3258 80.2916 26.3396 80.3443 26.3395L80.4543 26.4195ZM35.4543 26.4195C35.5038 26.429 35.5547 26.429 35.6043 26.4195C35.6787 26.3773 35.7345 26.3085 35.7604 26.2269C35.7864 26.1454 35.7806 26.057 35.7443 25.9795C35.4627 25.423 35.2575 24.831 35.1343 24.2195C35.1249 24.1779 35.1073 24.1386 35.0825 24.1039C35.0577 24.0692 35.0262 24.0398 34.9898 24.0174C34.9535 23.995 34.913 23.9802 34.8709 23.9737C34.8287 23.9672 34.7857 23.9691 34.7443 23.9795C34.7028 23.9879 34.6634 24.0044 34.6283 24.028C34.5933 24.0517 34.5633 24.082 34.54 24.1174C34.5168 24.1527 34.5007 24.1923 34.4929 24.2339C34.485 24.2755 34.4855 24.3181 34.4943 24.3595C34.6393 25.021 34.8643 25.6624 35.1643 26.2695C35.2124 26.2997 35.2676 26.3169 35.3243 26.3195L35.4543 26.4195ZM77.6443 23.7695C77.6898 23.7693 77.7348 23.7594 77.7761 23.7404C77.8175 23.7215 77.8544 23.6939 77.8843 23.6595C77.9442 23.5979 77.9776 23.5154 77.9776 23.4295C77.9776 23.3436 77.9442 23.2611 77.8843 23.1995L77.2843 22.6995L76.3543 21.9695C76.2851 21.917 76.1981 21.8938 76.112 21.9051C76.0259 21.9163 75.9476 21.961 75.8943 22.0295C75.8448 22.098 75.8235 22.1828 75.8346 22.2665C75.8458 22.3502 75.8886 22.4264 75.9543 22.4795L76.8743 23.1995L77.4643 23.6995C77.4818 23.6911 77.4986 23.6811 77.5142 23.6695L77.6443 23.7695ZM47.1243 23.6795C47.2102 23.6695 47.2886 23.6261 47.3429 23.5588C47.3971 23.4915 47.4227 23.4056 47.4143 23.3195C47.3379 22.6411 47.1973 21.9714 46.9943 21.3195C46.9828 21.2786 46.9633 21.2404 46.9369 21.2071C46.9104 21.1738 46.8777 21.1462 46.8404 21.1257C46.8032 21.1052 46.7623 21.0923 46.72 21.0878C46.6777 21.0833 46.635 21.0873 46.5943 21.0995C46.5535 21.1108 46.5154 21.1304 46.4825 21.157C46.4496 21.1836 46.4225 21.2166 46.4028 21.2541C46.3831 21.2916 46.3713 21.3327 46.3681 21.3749C46.3649 21.4171 46.3705 21.4595 46.3843 21.4995C46.5655 22.1043 46.6959 22.7231 46.7743 23.3495C46.7877 23.4037 46.8151 23.4535 46.8537 23.4938C46.8923 23.5342 46.9407 23.5637 46.9943 23.5795L47.1243 23.6795ZM34.6743 22.6795C34.7558 22.6797 34.8343 22.6487 34.8938 22.593C34.9532 22.5372 34.9892 22.4609 34.9943 22.3795C35.0404 21.7646 35.1821 21.1607 35.4143 20.5895C35.4307 20.5508 35.4394 20.5092 35.4398 20.4671C35.4402 20.425 35.4322 20.3833 35.4164 20.3443C35.4006 20.3053 35.3773 20.2697 35.3477 20.2397C35.3182 20.2098 35.2831 20.1859 35.2443 20.1695C35.2056 20.1531 35.1639 20.1444 35.1219 20.144C35.0798 20.1437 35.038 20.1516 34.999 20.1674C34.96 20.1832 34.9245 20.2065 34.8945 20.2361C34.8645 20.2656 34.8407 20.3008 34.8243 20.3395C34.5593 20.976 34.4005 21.6516 34.3543 22.3395C34.3502 22.3824 34.3547 22.4256 34.3677 22.4666C34.3807 22.5076 34.4018 22.5456 34.4298 22.5783C34.4578 22.611 34.4922 22.6377 34.5307 22.6568C34.5693 22.6759 34.6113 22.6871 34.6543 22.6895L34.6743 22.6795ZM74.4143 21.2695C74.4674 21.2704 74.5198 21.2581 74.567 21.2337C74.6141 21.2092 74.6544 21.1734 74.6843 21.1295C74.7316 21.0587 74.7497 20.9723 74.7348 20.8884C74.7199 20.8046 74.6731 20.7297 74.6043 20.6795C74.0643 20.3095 73.5042 19.9495 72.9543 19.6095C72.8798 19.5651 72.791 19.5517 72.7068 19.5723C72.6226 19.5929 72.5498 19.6458 72.5043 19.7195C72.4825 19.7556 72.4681 19.7956 72.4619 19.8373C72.4556 19.879 72.4576 19.9215 72.4679 19.9624C72.4781 20.0033 72.4963 20.0417 72.5214 20.0756C72.5465 20.1094 72.5781 20.1379 72.6143 20.1595C73.161 20.4995 73.7009 20.8495 74.2343 21.2095C74.2868 21.2473 74.3496 21.2682 74.4143 21.2695ZM45.9143 19.8195C45.957 19.8297 46.0015 19.8297 46.0443 19.8195C46.1233 19.7844 46.1854 19.7197 46.2172 19.6393C46.249 19.5589 46.2479 19.4692 46.2143 19.3895C45.9643 18.8195 45.6743 18.2195 45.3443 17.6195C45.3244 17.5817 45.2971 17.5482 45.264 17.5211C45.2309 17.4939 45.1928 17.4737 45.1518 17.4616C45.1107 17.4495 45.0677 17.4457 45.0252 17.4505C44.9827 17.4553 44.9416 17.4686 44.9043 17.4895C44.8298 17.5317 44.7746 17.6012 44.7503 17.6833C44.7261 17.7654 44.7346 17.8537 44.7743 17.9295C45.0943 18.5095 45.3843 19.0895 45.6243 19.6495C45.6478 19.7076 45.6877 19.7575 45.7393 19.793C45.7908 19.8286 45.8517 19.8482 45.9143 19.8495V19.8195ZM71.0443 19.2695C71.1036 19.2709 71.1622 19.2557 71.2134 19.2257C71.2646 19.1957 71.3064 19.152 71.3343 19.0995C71.3739 19.0236 71.3825 18.9353 71.3582 18.8532C71.334 18.7711 71.2788 18.7017 71.2043 18.6595C70.6343 18.3495 70.0443 18.0495 69.4543 17.7595C69.4162 17.7409 69.3749 17.7299 69.3326 17.7274C69.2903 17.7248 69.2479 17.7307 69.2079 17.7447C69.1679 17.7586 69.1311 17.7804 69.0996 17.8087C69.068 17.837 69.0424 17.8713 69.0243 17.9095C69.0056 17.9476 68.9947 17.9889 68.9922 18.0312C68.9896 18.0735 68.9955 18.1159 69.0094 18.1559C69.0234 18.1959 69.0452 18.2327 69.0735 18.2642C69.1018 18.2957 69.136 18.3214 69.1743 18.3395C69.7543 18.6195 70.3343 18.9195 70.8943 19.2295C70.9395 19.2567 70.9915 19.2706 71.0443 19.2695ZM35.9643 19.0195C36.0121 19.0189 36.0593 19.0078 36.1025 18.9871C36.1457 18.9663 36.1838 18.9365 36.2143 18.8995C36.6186 18.4266 37.0748 18.0005 37.5743 17.6295C37.6098 17.6057 37.64 17.5747 37.6629 17.5386C37.6859 17.5025 37.7012 17.4621 37.7077 17.4199C37.7143 17.3776 37.7121 17.3344 37.7011 17.2931C37.6902 17.2517 37.6708 17.213 37.6443 17.1795C37.6204 17.144 37.5895 17.1138 37.5534 17.0909C37.5173 17.0679 37.4769 17.0527 37.4346 17.0461C37.3923 17.0395 37.3492 17.0418 37.3078 17.0527C37.2665 17.0636 37.2278 17.0829 37.1943 17.1095C36.6501 17.5117 36.1535 17.9747 35.7143 18.4895C35.6573 18.5506 35.6257 18.631 35.6257 18.7145C35.6257 18.798 35.6573 18.8785 35.7143 18.9395C35.7584 18.9789 35.8121 19.0061 35.87 19.0183C35.9278 19.0306 35.9879 19.0276 36.0443 19.0095L35.9643 19.0195ZM67.5443 17.5695C67.6077 17.5665 67.6692 17.5464 67.722 17.5111C67.7749 17.4759 67.8171 17.427 67.8443 17.3695C67.8607 17.3308 67.8694 17.2892 67.8698 17.2471C67.8701 17.205 67.8622 17.1633 67.8464 17.1243C67.8306 17.0853 67.8073 17.0497 67.7777 17.0197C67.7482 16.9898 67.7131 16.9659 67.6743 16.9495C67.0643 16.6895 66.4543 16.4495 65.8443 16.2195C65.7633 16.1901 65.6741 16.1935 65.5956 16.229C65.5171 16.2645 65.4556 16.3293 65.4243 16.4095C65.3954 16.4918 65.4002 16.5821 65.4377 16.6608C65.4752 16.7395 65.5423 16.8001 65.6243 16.8295C66.2243 17.0495 66.8243 17.2895 67.4143 17.5395C67.4709 17.564 67.5336 17.5709 67.5943 17.5595L67.5443 17.5695ZM39.0543 16.6895C39.0998 16.7041 39.1488 16.7041 39.1943 16.6895C39.7668 16.4134 40.3544 16.1697 40.9543 15.9595C40.9945 15.946 41.0317 15.9247 41.0636 15.8967C41.0955 15.8687 41.1215 15.8346 41.1402 15.7964C41.1588 15.7583 41.1696 15.7168 41.172 15.6744C41.1744 15.632 41.1684 15.5896 41.1543 15.5495C41.1408 15.5093 41.1194 15.4721 41.0914 15.4402C41.0634 15.4083 41.0293 15.3823 40.9912 15.3636C40.953 15.345 40.9116 15.3342 40.8692 15.3318C40.8268 15.3294 40.7843 15.3354 40.7443 15.3495C40.1171 15.5679 39.5027 15.8216 38.9043 16.1095C38.828 16.15 38.7707 16.2187 38.7445 16.301C38.7184 16.3832 38.7254 16.4724 38.7642 16.5495C38.801 16.6032 38.8532 16.6443 38.914 16.6676C38.9747 16.6908 39.0411 16.695 39.1043 16.6795L39.0543 16.6895ZM44.0543 16.4195C44.1151 16.4233 44.1752 16.4056 44.2243 16.3695C44.2607 16.3481 44.2924 16.3194 44.3173 16.2853C44.3422 16.2512 44.3599 16.2123 44.3692 16.1711C44.3786 16.1299 44.3795 16.0872 44.3717 16.0457C44.364 16.0041 44.3479 15.9646 44.3243 15.9295C44.1643 15.6695 43.9943 15.4195 43.8243 15.1495L44.7143 14.9695C44.7978 14.9549 44.8721 14.9077 44.9208 14.8383C44.9696 14.7689 44.9888 14.6831 44.9743 14.5995C44.9671 14.5572 44.9515 14.5167 44.9283 14.4805C44.9051 14.4443 44.8749 14.4131 44.8394 14.3889C44.804 14.3646 44.764 14.3477 44.7219 14.3393C44.6798 14.3308 44.6364 14.3309 44.5943 14.3395C44.2043 14.4095 43.8143 14.4895 43.4343 14.5795L43.2343 14.2995C43.2103 14.2644 43.1795 14.2344 43.1437 14.2113C43.108 14.1882 43.068 14.1725 43.0261 14.165C42.9842 14.1576 42.9412 14.1585 42.8997 14.1679C42.8582 14.1773 42.8189 14.1948 42.7843 14.2195C42.7491 14.2436 42.7191 14.2743 42.696 14.3101C42.6729 14.3458 42.6572 14.3858 42.6497 14.4277C42.6423 14.4696 42.6433 14.5126 42.6527 14.5541C42.662 14.5956 42.6795 14.6349 42.7043 14.6695L42.7543 14.7395H42.6743C42.5908 14.763 42.5195 14.8175 42.4749 14.8919C42.4303 14.9662 42.4157 15.0548 42.4343 15.1395C42.4598 15.2211 42.5151 15.2901 42.5893 15.3328C42.6634 15.3754 42.7509 15.3885 42.8343 15.3695L43.1443 15.2995C43.3743 15.6195 43.5843 15.9495 43.7843 16.2995C43.8158 16.3371 43.8558 16.3667 43.901 16.3858C43.9462 16.405 43.9953 16.4131 44.0443 16.4095L44.0543 16.4195ZM63.9143 16.2095C63.983 16.2125 64.0508 16.1925 64.107 16.1526C64.1631 16.1128 64.2044 16.0554 64.2243 15.9895C64.2496 15.9073 64.2419 15.8184 64.2027 15.7418C64.1634 15.6652 64.0958 15.607 64.0142 15.5795C63.3942 15.3895 62.7543 15.1995 62.1243 15.0395C62.0836 15.0275 62.0408 15.0241 61.9987 15.0293C61.9566 15.0345 61.9159 15.0484 61.8794 15.0699C61.8428 15.0915 61.8111 15.1203 61.7861 15.1547C61.7611 15.189 61.7435 15.2281 61.7343 15.2695C61.7238 15.3102 61.7213 15.3526 61.7272 15.3943C61.7331 15.4359 61.7471 15.476 61.7685 15.5122C61.7898 15.5484 61.8181 15.5801 61.8517 15.6053C61.8853 15.6306 61.9235 15.6491 61.9643 15.6595C62.5843 15.8195 63.2043 16.0095 63.8243 16.1995L63.9143 16.2095ZM60.1543 15.2095C60.2285 15.2105 60.3007 15.1848 60.3576 15.1371C60.4145 15.0894 60.4523 15.0228 60.4643 14.9495C60.473 14.9081 60.4735 14.8654 60.4657 14.8239C60.4578 14.7823 60.4418 14.7427 60.4185 14.7074C60.3953 14.672 60.3653 14.6417 60.3302 14.618C60.2952 14.5944 60.2557 14.5779 60.2143 14.5695C59.5743 14.4295 58.9243 14.3095 58.2843 14.2095C58.2007 14.195 58.1149 14.2142 58.0455 14.263C57.9761 14.3117 57.9289 14.386 57.9143 14.4695C57.9057 14.5118 57.906 14.5553 57.9152 14.5974C57.9244 14.6396 57.9422 14.6793 57.9676 14.7141C57.993 14.7489 58.0254 14.7781 58.0627 14.7997C58.1 14.8212 58.1414 14.8348 58.1843 14.8395C58.8143 14.9495 59.4543 15.0695 60.0843 15.1995L60.1543 15.2095ZM46.5843 14.6595C47.2143 14.5695 47.8643 14.4995 48.5043 14.4495C48.5901 14.4419 48.6694 14.401 48.7255 14.3356C48.7815 14.2702 48.8098 14.1855 48.8043 14.0995C48.8005 14.0574 48.7884 14.0165 48.7688 13.9791C48.7491 13.9417 48.7223 13.9086 48.6897 13.8816C48.6572 13.8546 48.6196 13.8344 48.5792 13.822C48.5388 13.8097 48.4963 13.8054 48.4543 13.8095C47.8042 13.8095 47.1442 13.9295 46.4543 14.0195C46.4124 14.0244 46.3721 14.0377 46.3355 14.0587C46.299 14.0796 46.2671 14.1078 46.2418 14.1415C46.2166 14.1752 46.1985 14.2136 46.1886 14.2546C46.1787 14.2955 46.1772 14.338 46.1843 14.3795C46.1879 14.4281 46.2025 14.4751 46.2271 14.5172C46.2516 14.5592 46.2854 14.5951 46.3259 14.6221C46.3664 14.6491 46.4125 14.6665 46.4608 14.673C46.509 14.6795 46.5581 14.6749 46.6043 14.6595H46.5843ZM56.3043 14.5795C56.3842 14.5799 56.4614 14.5503 56.5206 14.4966C56.5798 14.443 56.6168 14.3691 56.6243 14.2895C56.6328 14.2061 56.6082 14.1228 56.5558 14.0573C56.5035 13.9919 56.4275 13.9496 56.3443 13.9395C55.6943 13.8595 55.0343 13.7995 54.3443 13.7595C54.3022 13.7568 54.26 13.7624 54.2202 13.7761C54.1803 13.7897 54.1436 13.8111 54.112 13.8389C54.0804 13.8668 54.0546 13.9006 54.0361 13.9385C54.0176 13.9763 54.0068 14.0175 54.0043 14.0595C54.0002 14.1019 54.0048 14.1446 54.0178 14.1851C54.0309 14.2255 54.0522 14.2628 54.0803 14.2947C54.1085 14.3266 54.1429 14.3524 54.1814 14.3704C54.2199 14.3884 54.2618 14.3984 54.3043 14.3995C54.9443 14.4495 55.5943 14.4995 56.2243 14.5795H56.3043ZM50.4643 14.3395C51.1143 14.3395 51.7543 14.3395 52.4043 14.3395C52.4458 14.3409 52.4872 14.3339 52.526 14.3189C52.5647 14.3039 52.6001 14.2813 52.63 14.2523C52.6598 14.2234 52.6835 14.1888 52.6997 14.1505C52.7159 14.1122 52.7243 14.0711 52.7243 14.0295C52.7256 13.9875 52.7186 13.9456 52.7038 13.9063C52.6889 13.8669 52.6665 13.8309 52.6377 13.8003C52.6089 13.7696 52.5743 13.7449 52.536 13.7277C52.4976 13.7104 52.4563 13.7008 52.4143 13.6995C51.7543 13.6995 51.1043 13.6995 50.4143 13.6995C50.3714 13.7008 50.3291 13.7107 50.2901 13.7286C50.2511 13.7465 50.2161 13.7721 50.1872 13.8038C50.1582 13.8355 50.136 13.8727 50.1218 13.9132C50.1076 13.9537 50.1016 13.9967 50.1043 14.0395C50.1063 14.0854 50.1182 14.1303 50.1392 14.1712C50.1601 14.2121 50.1896 14.248 50.2257 14.2764C50.2617 14.3049 50.3035 14.3253 50.3481 14.3362C50.3927 14.347 50.4392 14.3482 50.4843 14.3395H50.4643ZM41.8143 13.2295C41.8871 13.2304 41.9579 13.2056 42.0142 13.1595C42.0735 13.0996 42.1067 13.0188 42.1067 12.9345C42.1067 12.8503 42.0735 12.7694 42.0142 12.7095C41.6142 12.1895 41.1943 11.7095 40.7743 11.1795C40.7144 11.1203 40.6335 11.0871 40.5493 11.0871C40.465 11.0871 40.3842 11.1203 40.3243 11.1795C40.2644 11.2411 40.2309 11.3237 40.2309 11.4095C40.2309 11.4954 40.2644 11.5779 40.3243 11.6395C40.7343 12.1195 41.1543 12.6395 41.5443 13.1295C41.5759 13.1764 41.6194 13.2141 41.6704 13.2387C41.7213 13.2633 41.7779 13.2739 41.8343 13.2695L41.8143 13.2295ZM39.2743 10.2295C39.315 10.2297 39.3555 10.2219 39.3933 10.2065C39.431 10.191 39.4653 10.1683 39.4943 10.1395C39.5249 10.1106 39.5492 10.0757 39.5658 10.037C39.5825 9.9983 39.591 9.95663 39.591 9.91452C39.591 9.87241 39.5825 9.83077 39.5658 9.79208C39.5492 9.7534 39.5249 9.71851 39.4943 9.68954C39.0443 9.20955 38.5743 8.74954 38.0943 8.30954C38.0653 8.27898 38.0304 8.25464 37.9917 8.23801C37.953 8.22137 37.9114 8.21277 37.8693 8.21277C37.8272 8.21277 37.7855 8.22137 37.7468 8.23801C37.7081 8.25464 37.6732 8.27898 37.6443 8.30954C37.6134 8.33938 37.5889 8.3751 37.5722 8.41461C37.5554 8.45412 37.5468 8.4966 37.5468 8.53952C37.5468 8.58244 37.5554 8.62492 37.5722 8.66443C37.5889 8.70394 37.6134 8.73969 37.6443 8.76953C38.1143 9.19953 38.5743 9.65954 39.0243 10.1195C39.0506 10.1674 39.0899 10.2069 39.1377 10.2335C39.1854 10.26 39.2397 10.2725 39.2943 10.2695L39.2743 10.2295ZM36.4243 7.57953C36.5188 7.57713 36.6086 7.53763 36.6743 7.46954C36.7341 7.40795 36.7676 7.32543 36.7676 7.23953C36.7676 7.15364 36.7341 7.07112 36.6743 7.00952C36.1643 6.58952 35.6743 6.18954 35.1143 5.80954C35.0796 5.78483 35.0404 5.76727 34.9989 5.7579C34.9573 5.74854 34.9144 5.74756 34.8725 5.755C34.8306 5.76245 34.7906 5.7782 34.7548 5.8013C34.7191 5.8244 34.6883 5.85438 34.6643 5.88953C34.6391 5.92357 34.6209 5.96228 34.6107 6.00342C34.6006 6.04455 34.5987 6.08729 34.6053 6.12915C34.6118 6.17101 34.6265 6.21117 34.6486 6.24728C34.6708 6.2834 34.6999 6.31476 34.7343 6.33954C35.2543 6.71287 35.7642 7.10285 36.2642 7.50952C36.3095 7.5661 36.3733 7.60504 36.4443 7.61954L36.4243 7.57953ZM33.2543 5.31952C33.3083 5.31933 33.3614 5.30549 33.4086 5.27927C33.4558 5.25304 33.4956 5.21528 33.5243 5.16953C33.5696 5.0963 33.5846 5.00824 33.5659 4.92416C33.5472 4.84008 33.4964 4.76667 33.4243 4.71954C32.8643 4.37954 32.2843 4.04954 31.7043 3.71954C31.6272 3.6807 31.538 3.6736 31.4557 3.69977C31.3735 3.72594 31.3047 3.78328 31.2642 3.85953C31.2259 3.93513 31.2191 4.02286 31.2453 4.10349C31.2716 4.18411 31.3287 4.25102 31.4043 4.28952C31.9743 4.58952 32.5343 4.90952 33.0843 5.28952C33.1096 5.3133 33.1396 5.33176 33.1722 5.34378C33.2048 5.3558 33.2395 5.36116 33.2743 5.35953L33.2543 5.31952ZM29.7943 3.51953C29.8575 3.52102 29.9197 3.50378 29.9731 3.46997C30.0264 3.43616 30.0686 3.38728 30.0943 3.32953C30.1107 3.2908 30.1194 3.24921 30.1198 3.20712C30.1201 3.16504 30.1122 3.12327 30.0964 3.08426C30.0806 3.04524 30.0573 3.00972 30.0277 2.97974C29.9982 2.94975 29.9631 2.92592 29.9243 2.90955C29.3243 2.64955 28.7043 2.40954 28.0843 2.18954C28.0442 2.1754 28.0018 2.16936 27.9594 2.17178C27.9171 2.17421 27.8755 2.18503 27.8374 2.20364C27.7992 2.22226 27.7652 2.24827 27.7372 2.28018C27.7092 2.31209 27.6878 2.34927 27.6743 2.38953C27.6601 2.42956 27.6541 2.47202 27.6565 2.5144C27.659 2.55679 27.6698 2.59825 27.6884 2.63641C27.707 2.67457 27.733 2.70866 27.7649 2.73666C27.7968 2.76467 27.834 2.78603 27.8743 2.79953C28.4743 3.00953 29.0843 3.24954 29.6643 3.49954C29.7083 3.53204 29.76 3.5527 29.8143 3.55954L29.7943 3.51953ZM4.89426 2.71954H4.96426L6.86429 2.31952C6.90665 2.31234 6.94711 2.29672 6.98331 2.27356C7.0195 2.2504 7.05066 2.22019 7.07492 2.18472C7.09918 2.14926 7.11607 2.10926 7.12454 2.06714C7.13302 2.02501 7.13296 1.98163 7.1243 1.93954C7.10512 1.85708 7.05495 1.78515 6.98422 1.73862C6.91349 1.69209 6.82761 1.67452 6.74429 1.68954C6.10429 1.80954 5.46431 1.94954 4.82431 2.08954C4.74185 2.10872 4.66991 2.15886 4.62338 2.22958C4.57685 2.30031 4.55928 2.38623 4.57431 2.46954C4.58639 2.5508 4.62747 2.62491 4.68997 2.67822C4.75247 2.73153 4.83213 2.76041 4.91428 2.75952L4.89426 2.71954ZM26.1143 2.23953C26.187 2.24183 26.2582 2.21931 26.3164 2.17569C26.3745 2.13207 26.4162 2.06995 26.4343 1.99954C26.4448 1.95883 26.4472 1.91642 26.4413 1.87479C26.4354 1.83315 26.4215 1.79309 26.4001 1.75687C26.3788 1.72065 26.3505 1.68898 26.3169 1.6637C26.2833 1.63842 26.245 1.62001 26.2043 1.60953C25.5743 1.43953 24.9343 1.27954 24.2843 1.14954C24.1995 1.13481 24.1124 1.15374 24.0415 1.2023C23.9705 1.25086 23.9212 1.32524 23.9043 1.40955C23.8892 1.49286 23.9068 1.57875 23.9533 1.64948C23.9999 1.7202 24.0718 1.77034 24.1543 1.78952C24.7943 1.90952 25.4243 2.05952 26.0343 2.22952L26.1143 2.23953ZM8.71426 1.95953H8.77426C9.44093 1.8462 10.081 1.74621 10.6943 1.65955C10.7785 1.64481 10.8535 1.598 10.9039 1.52899C10.9543 1.45999 10.9759 1.37415 10.9643 1.28952C10.9594 1.24769 10.9462 1.20729 10.9252 1.17078C10.9042 1.13426 10.876 1.10238 10.8423 1.07712C10.8086 1.05185 10.7701 1.03374 10.7292 1.02383C10.6883 1.01393 10.6458 1.01246 10.6043 1.01953C9.95428 1.10953 9.31428 1.20952 8.66428 1.31952C8.58076 1.33416 8.50648 1.38137 8.45773 1.45074C8.40898 1.52012 8.38975 1.60601 8.40427 1.68954C8.40417 1.73199 8.41284 1.77398 8.42966 1.81296C8.44647 1.85193 8.47111 1.88704 8.50204 1.91611C8.53298 1.94517 8.56958 1.96759 8.60953 1.98193C8.64948 1.99628 8.69193 2.00228 8.73428 1.99954L8.71426 1.95953ZM22.3043 1.46954C22.3821 1.46808 22.4569 1.43917 22.5154 1.38794C22.574 1.33671 22.6125 1.26645 22.6243 1.18954C22.6299 1.14747 22.627 1.10469 22.6159 1.06372C22.6048 1.02275 22.5857 0.9844 22.5597 0.950897C22.5336 0.917394 22.5011 0.889397 22.4641 0.868561C22.4272 0.847724 22.3864 0.834464 22.3443 0.829529C21.7043 0.739529 21.0443 0.669537 20.3443 0.619537C20.3027 0.615425 20.2609 0.619722 20.221 0.632202C20.1812 0.644683 20.1443 0.66509 20.1126 0.692169C20.0808 0.719249 20.0548 0.752444 20.0362 0.789795C20.0176 0.827146 20.0068 0.867892 20.0043 0.909546C20.0002 0.951603 20.0044 0.994045 20.0168 1.03445C20.0291 1.07486 20.0494 1.11242 20.0763 1.14496C20.1033 1.1775 20.1365 1.2044 20.1739 1.22406C20.2113 1.24372 20.2522 1.25576 20.2943 1.25952C20.9443 1.30952 21.5943 1.37954 22.2143 1.46954H22.3043ZM12.5743 1.41953C13.2143 1.34953 13.8643 1.29954 14.5043 1.24954C14.5464 1.247 14.5875 1.23616 14.6253 1.21768C14.6632 1.1992 14.697 1.17344 14.7249 1.14185C14.7528 1.11026 14.7741 1.07346 14.7878 1.0336C14.8014 0.993735 14.807 0.951587 14.8043 0.909546C14.8018 0.866582 14.7907 0.824541 14.7716 0.78598C14.7525 0.747419 14.7258 0.713127 14.6931 0.68512C14.6604 0.657112 14.6224 0.635972 14.5814 0.622986C14.5404 0.61 14.4971 0.605421 14.4543 0.609528C13.8043 0.609528 13.1543 0.709541 12.4543 0.779541C12.4122 0.783301 12.3712 0.795339 12.3338 0.815002C12.2964 0.834666 12.2633 0.861563 12.2364 0.894104C12.2094 0.926645 12.1892 0.964199 12.1768 1.00461C12.1644 1.04502 12.1601 1.08746 12.1643 1.12952C12.1592 1.18344 12.1679 1.23779 12.1895 1.28745C12.2112 1.3371 12.2451 1.38045 12.2881 1.41342C12.331 1.4464 12.3817 1.46792 12.4352 1.47598C12.4888 1.48405 12.5435 1.47839 12.5943 1.45953L12.5743 1.41953ZM18.4143 1.15955C18.4984 1.1597 18.5795 1.12766 18.6408 1.07004C18.7022 1.01241 18.7392 0.933527 18.7443 0.849518C18.7456 0.806661 18.7383 0.763985 18.7229 0.723999C18.7074 0.684013 18.684 0.647542 18.6541 0.61676C18.6243 0.585978 18.5886 0.561503 18.5491 0.5448C18.5096 0.528097 18.4672 0.51951 18.4243 0.519531C17.7743 0.519531 17.1143 0.519531 16.4243 0.519531C16.3814 0.51951 16.339 0.528097 16.2995 0.5448C16.26 0.561503 16.2242 0.585978 16.1944 0.61676C16.1645 0.647542 16.1412 0.684013 16.1257 0.723999C16.1102 0.763985 16.1029 0.806661 16.1043 0.849518C16.1069 0.932642 16.1417 1.0115 16.2014 1.06937C16.2612 1.12723 16.3411 1.15959 16.4243 1.15955H18.3743H18.4143Z" fill="#999999"/>
</g>
<defs>
<filter id="filter0_d_1_303" x="0.569092" y="0.519531" width="97.9954" height="117.54" filterUnits="userSpaceOnUse" color-interpolation-filters="sRGB">
<feFlood flood-opacity="0" result="BackgroundImageFix"/>
<feColorMatrix in="SourceAlpha" type="matrix" values="0 0 0 0 0 0 0 0 0 0 0 0 0 0 0 0 0 0 127 0" result="hardAlpha"/>
<feOffset dy="4"/>
<feGaussianBlur stdDeviation="2"/>
<feComposite in2="hardAlpha" operator="out"/>
<feColorMatrix type="matrix" values="0 0 0 0 0 0 0 0 0 0 0 0 0 0 0 0 0 0 0.25 0"/>
<feBlend mode="normal" in2="BackgroundImageFix" result="effect1_dropShadow_1_303"/>
<feBlend mode="normal" in="SourceGraphic" in2="effect1_dropShadow_1_303" result="shape"/>
</filter>
</defs>
</svg>
